<?xml version="1.0" encoding="UTF-8" standalone="no"?>
<!DOCTYPE svg PUBLIC "-//W3C//DTD SVG 1.1//EN" "http://www.w3.org/Graphics/SVG/1.1/DTD/svg11.dtd">
<svg width="100%" height="100%" viewBox="0 0 207 416" version="1.1" xmlns="http://www.w3.org/2000/svg" xmlns:xlink="http://www.w3.org/1999/xlink" xml:space="preserve" xmlns:serif="http://www.serif.com/" style="fill-rule:evenodd;clip-rule:evenodd;stroke-linecap:round;stroke-linejoin:round;stroke-miterlimit:1.5;">
    <g id="Layer1" transform="matrix(0.877495,0,0,0.877495,12.9222,93.4267)">
        <path d="M69.21,315.397C69.21,315.397 58.369,298.519 77.08,298.861C95.791,299.204 88.286,313.815 84.223,320.071C75.82,333.008 86.622,357.208 94.762,358.293C94.762,358.293 79.934,330.83 103.5,324.531C118.45,320.534 121.059,311.477 125.186,302.182C129.313,292.886 136.758,211.364 116.571,193.366C96.383,175.368 92.064,152.025 92.064,152.025C92.064,152.025 62.037,236.21 51.28,251.31C39.91,267.272 59.354,313.122 69.21,315.397Z" style="fill:url(#_Linear1);stroke:rgb(12,21,53);stroke-width:1.14px;"/>
        <path d="M66.093,108.733C66.093,108.733 55.065,89.981 45.981,91.82C36.897,93.659 27.666,109.235 34.387,129.455C41.107,149.676 45.836,145.657 45.981,150.338C46.126,155.019 41.987,162.323 55.71,183.259C67.281,200.914 39.228,210.265 41.617,234.385C42.328,241.567 34.881,244.529 33.127,254.304C31.874,261.282 37.53,263.723 37.476,276.719C37.368,303.008 31.022,300.19 28.101,303.329C33.357,302.895 54.529,288.904 55.498,271.733C56.385,256.003 88.028,233.597 85.716,199.079C83.337,163.561 68.555,165.95 66.109,147.258C63.571,127.867 69.739,127.836 66.093,108.733Z" style="fill:url(#_Linear2);stroke:rgb(12,21,53);stroke-width:1.14px;"/>
        <path d="M74.098,233.677C68.137,241.945 75.41,268.364 82.281,268.773C77.594,244.594 82.834,234.204 94.57,211.844C98.864,203.663 103.138,195.527 104.715,186.379C105.767,180.275 106.468,174.055 106.291,167.864C105.806,150.854 97.539,124.647 94.771,110.607C92.245,97.793 93.439,82.872 86.639,71.024C84.716,67.672 79.749,62.067 74.91,62.976C61.22,65.547 54.834,81.401 55.177,93.899C55.388,101.576 59.37,105.005 60.771,119.303C61.613,127.895 54.436,132.666 54.528,140.504C54.583,145.123 55.079,149.806 56.386,154.237C59.364,164.333 61.65,162.958 67.116,172.002C71.591,179.406 72.481,188.106 71.65,196.555C70.132,211.977 64.347,220.854 55.396,233.891C53.945,236.004 49.17,241.444 45.981,241.109C51.828,241.22 57.37,243.297 63.006,241.13C68.008,239.206 74.098,233.677 74.098,233.677Z" style="fill:url(#_Linear3);stroke:rgb(12,21,53);stroke-width:1.14px;"/>
        <path d="M158.72,81.345C177.066,84.27 188.992,100.806 164.569,128.607C156.742,137.516 168.906,147.554 167.474,152.61C167.103,153.92 170.337,166.39 155.738,174.785C141.139,183.18 130.184,171.276 127.183,164.657C124.183,158.038 126.092,96.169 132.3,93.045C138.508,89.921 150.817,80.085 158.72,81.345Z" style="fill:url(#_Linear4);stroke:rgb(12,21,53);stroke-width:1.14px;"/>
        <path d="M118.07,337.521C126.757,339.362 154.487,303.289 149.639,274.91C145.729,252.024 175.292,238.888 170.863,211.102C168.139,194.012 160.14,188.868 150.255,165.826C143.44,149.941 160.861,125.232 157.039,81.234C153.218,37.236 96.542,52.631 88.91,72.24C81.278,91.849 76.363,136.401 88.91,156.346C101.456,176.291 117.218,215.923 110.171,233.553C103.125,251.182 97.115,259.202 106.318,279.635C113.455,295.48 132.957,331.742 118.07,337.521Z" style="fill:url(#_Linear5);stroke:rgb(12,21,53);stroke-width:1.14px;"/>
    </g>
    <defs>
        <linearGradient id="_Linear1" x1="0" y1="0" x2="1" y2="0" gradientUnits="userSpaceOnUse" gradientTransform="matrix(1.32195e-14,215.891,-215.891,1.32195e-14,106.318,142.401)"><stop offset="0" style="stop-color:rgb(60,76,114);stop-opacity:1"/><stop offset="1" style="stop-color:rgb(19,28,67);stop-opacity:1"/></linearGradient>
        <linearGradient id="_Linear2" x1="0" y1="0" x2="1" y2="0" gradientUnits="userSpaceOnUse" gradientTransform="matrix(1.32195e-14,215.891,-215.891,1.32195e-14,106.318,142.401)"><stop offset="0" style="stop-color:rgb(60,76,114);stop-opacity:1"/><stop offset="1" style="stop-color:rgb(19,28,67);stop-opacity:1"/></linearGradient>
        <linearGradient id="_Linear3" x1="0" y1="0" x2="1" y2="0" gradientUnits="userSpaceOnUse" gradientTransform="matrix(1.32195e-14,215.891,-215.891,1.32195e-14,106.318,142.401)"><stop offset="0" style="stop-color:rgb(60,76,114);stop-opacity:1"/><stop offset="1" style="stop-color:rgb(19,28,67);stop-opacity:1"/></linearGradient>
        <linearGradient id="_Linear4" x1="0" y1="0" x2="1" y2="0" gradientUnits="userSpaceOnUse" gradientTransform="matrix(1.32195e-14,215.891,-215.891,1.32195e-14,106.318,142.401)"><stop offset="0" style="stop-color:rgb(60,76,114);stop-opacity:1"/><stop offset="1" style="stop-color:rgb(19,28,67);stop-opacity:1"/></linearGradient>
        <linearGradient id="_Linear5" x1="0" y1="0" x2="1" y2="0" gradientUnits="userSpaceOnUse" gradientTransform="matrix(1.32195e-14,215.891,-215.891,1.32195e-14,106.318,142.401)"><stop offset="0" style="stop-color:rgb(60,76,114);stop-opacity:1"/><stop offset="1" style="stop-color:rgb(19,28,67);stop-opacity:1"/></linearGradient>
    </defs>
</svg>
